<?xml version="1.0" encoding="UTF-8"?>
<svg xmlns="http://www.w3.org/2000/svg" xmlns:xlink="http://www.w3.org/1999/xlink" width="120pt" height="120pt" viewBox="0 0 120 120" version="1.1">
<g id="surface6219153">
<path style=" stroke:none;fill-rule:nonzero;fill:rgb(100%,100%,100%);fill-opacity:1;" d="M 6.828125 1.171875 L 1.171875 6.828125 L 113.171875 118.828125 L 118.828125 113.171875 L 94.726562 89.070312 C 111.109375 77.976562 119.195312 62.464844 119.304688 62.257812 C 119.757812 61.59375 120 60.804688 120 60 C 120 59.097656 119.695312 58.222656 119.132812 57.515625 C 118.714844 56.84375 95.671875 20 60 20 C 49.878906 20 40.796875 23 32.9375 27.28125 Z M 60 32 C 75.464844 32 88 44.535156 88 60 C 88 66.289062 85.878906 72.050781 82.375 76.71875 L 73.757812 68.101562 C 75.171875 65.726562 76 62.96875 76 60 C 76 51.164062 68.835938 44 60 44 C 57.03125 44 54.273438 44.828125 51.898438 46.242188 L 43.28125 37.625 C 47.949219 34.121094 53.710938 32 60 32 Z M 19.804688 36.304688 C 7.917969 46.304688 1.101562 57.148438 0.875 57.507812 C 0.308594 58.214844 0 59.09375 0 60 C 0 60.785156 0.230469 61.550781 0.664062 62.203125 C 0.734375 62.34375 20.074219 100 60 100 C 67.398438 100 74.082031 98.695312 80.078125 96.585938 L 69.726562 86.226562 C 66.691406 87.355469 63.425781 88 60 88 C 44.535156 88 32 75.464844 32 60 C 32 56.574219 32.644531 53.308594 33.773438 50.273438 Z M 44.046875 60.445312 C 44.285156 68.914062 51.078125 75.714844 59.546875 75.953125 Z M 44.046875 60.445312 "/>
</g>
</svg>
