<?xml version="1.0" encoding="UTF-8"?>
<svg xmlns="http://www.w3.org/2000/svg" xmlns:xlink="http://www.w3.org/1999/xlink" width="120pt" height="120pt" viewBox="0 0 120 120" version="1.1">
<g id="surface6108031">
<path style=" stroke:none;fill-rule:nonzero;fill:rgb(100%,100%,100%);fill-opacity:1;" d="M 60 20 C 24.328125 20 1.285156 56.84375 0.867188 57.515625 C 0.304688 58.222656 0 59.097656 0 60 C 0 60.773438 0.226562 61.53125 0.648438 62.179688 C 0.652344 62.1875 0.660156 62.195312 0.664062 62.203125 C 0.734375 62.34375 20.074219 100 60 100 C 99.753906 100 119.070312 62.714844 119.304688 62.257812 C 119.320312 62.230469 119.335938 62.207031 119.351562 62.179688 C 119.773438 61.53125 120 60.773438 120 60 C 120 59.101562 119.695312 58.230469 119.140625 57.523438 C 119.136719 57.519531 119.136719 57.519531 119.132812 57.515625 C 118.714844 56.84375 95.671875 20 60 20 Z M 60 32 C 75.464844 32 88 44.535156 88 60 C 88 75.464844 75.464844 88 60 88 C 44.535156 88 32 75.464844 32 60 C 32 44.535156 44.535156 32 60 32 Z M 60 48 C 53.371094 48 48 53.371094 48 60 C 48 66.628906 53.371094 72 60 72 C 66.628906 72 72 66.628906 72 60 C 72 53.371094 66.628906 48 60 48 Z M 60 48 "/>
</g>
</svg>
