<?xml version="1.0" encoding="UTF-8"?>
<svg xmlns="http://www.w3.org/2000/svg" xmlns:xlink="http://www.w3.org/1999/xlink" width="120pt" height="120pt" viewBox="0 0 120 120" version="1.1">
<g id="surface26901555">
<path style=" stroke:none;fill-rule:nonzero;fill:rgb(100%,100%,100%);fill-opacity:1;" d="M 17.761719 17.761719 C 16.375 17.742188 15.085938 18.46875 14.390625 19.664062 C 13.691406 20.859375 13.691406 22.339844 14.390625 23.535156 C 15.085938 24.730469 16.375 25.460938 17.761719 25.441406 L 20.835938 25.441406 L 48.480469 60 L 71.519531 60 L 99.164062 25.441406 L 102.238281 25.441406 C 103.625 25.460938 104.914062 24.730469 105.609375 23.535156 C 106.308594 22.339844 106.308594 20.859375 105.609375 19.664062 C 104.914062 18.46875 103.625 17.742188 102.238281 17.761719 Z M 90.71875 63.839844 C 75.875 63.839844 63.839844 75.875 63.839844 90.71875 C 63.839844 105.566406 75.875 117.601562 90.71875 117.601562 C 105.566406 117.601562 117.601562 105.566406 117.601562 90.71875 C 117.601562 75.875 105.566406 63.839844 90.71875 63.839844 Z M 48.480469 67.679688 L 48.480469 102.238281 L 57.277344 99.308594 C 56.574219 96.558594 56.160156 93.6875 56.160156 90.71875 C 56.160156 81.855469 59.523438 73.796875 65.011719 67.679688 Z M 83.039062 79.199219 C 84.023438 79.199219 85.003906 79.574219 85.753906 80.324219 L 90.71875 85.289062 L 95.683594 80.324219 C 97.1875 78.824219 99.613281 78.824219 101.113281 80.324219 C 102.617188 81.828125 102.617188 84.253906 101.113281 85.753906 L 96.148438 90.71875 L 101.113281 95.683594 C 102.617188 97.1875 102.617188 99.613281 101.113281 101.113281 C 100.367188 101.863281 99.382812 102.238281 98.398438 102.238281 C 97.417969 102.238281 96.433594 101.863281 95.683594 101.113281 L 90.71875 96.148438 L 85.753906 101.113281 C 85.007812 101.863281 84.023438 102.238281 83.039062 102.238281 C 82.058594 102.238281 81.074219 101.863281 80.324219 101.113281 C 78.824219 99.613281 78.824219 97.1875 80.324219 95.683594 L 85.289062 90.71875 L 80.324219 85.753906 C 78.824219 84.253906 78.824219 81.828125 80.324219 80.324219 C 81.074219 79.574219 82.058594 79.199219 83.039062 79.199219 Z M 83.039062 79.199219 "/>
</g>
</svg>
