<?xml version="1.0" encoding="UTF-8"?>
<svg xmlns="http://www.w3.org/2000/svg" xmlns:xlink="http://www.w3.org/1999/xlink" width="120pt" height="120pt" viewBox="0 0 120 120" version="1.1">
<g id="surface26840363">
<path style=" stroke:none;fill-rule:nonzero;fill:rgb(100%,100%,100%);fill-opacity:1;" d="M 16 16 C 14.558594 15.980469 13.214844 16.738281 12.488281 17.984375 C 11.761719 19.230469 11.761719 20.769531 12.488281 22.015625 C 13.214844 23.261719 14.558594 24.019531 16 24 L 18.132812 24 L 48 59.460938 L 48 104 L 72 96 L 72 59.460938 L 101.867188 24 L 104 24 C 105.441406 24.019531 106.785156 23.261719 107.511719 22.015625 C 108.238281 20.769531 108.238281 19.230469 107.511719 17.984375 C 106.785156 16.738281 105.441406 15.980469 104 16 Z M 28.601562 24 L 91.398438 24 L 81.296875 36 L 38.703125 36 Z M 28.601562 24 "/>
</g>
</svg>
